<?xml version="1.0" standalone="no"?>
<!DOCTYPE svg PUBLIC "-//W3C//DTD SVG 20010904//EN"
 "http://www.w3.org/TR/2001/REC-SVG-20010904/DTD/svg10.dtd">
<svg version="1.0" xmlns="http://www.w3.org/2000/svg"
 width="387.000000pt" height="329.000000pt" viewBox="0 0 387.000000 329.000000"
 preserveAspectRatio="xMidYMid meet">

<g transform="translate(0.000000,329.000000) scale(0.100000,-0.100000)"
fill="#000000" stroke="none">
<path d="M1784 2621 c-104 -28 -184 -72 -260 -143 -133 -124 -194 -261 -194
-436 0 -173 49 -299 164 -419 64 -68 67 -73 42 -73 -19 0 -26 -5 -26 -20 0
-18 7 -20 54 -20 59 0 115 -16 100 -29 -5 -4 -31 -16 -57 -25 -185 -68 -367
-236 -457 -421 -70 -145 -109 -334 -75 -368 38 -39 85 -3 85 64 0 63 38 187
85 278 76 147 206 271 356 340 114 52 121 50 54 -18 -53 -54 -58 -63 -44 -76
13 -13 23 -8 87 51 58 53 70 69 61 80 -13 16 3 25 52 28 30 1 35 -5 100 -111
38 -62 65 -113 61 -114 -4 -1 -17 0 -29 1 -57 4 -113 -62 -95 -111 17 -42 53
-65 206 -129 140 -59 150 -66 175 -106 14 -24 33 -44 42 -44 30 0 330 172 339
194 7 19 10 15 29 -27 28 -64 48 -137 61 -222 12 -78 22 -95 55 -95 38 0 49
24 42 93 -16 162 -86 328 -195 460 -23 29 -63 87 -89 129 -50 84 -81 105 -135
94 -23 -4 -52 2 -109 26 -43 17 -76 35 -73 40 3 4 23 11 45 14 21 4 39 11 39
17 0 6 30 40 68 77 141 139 206 317 182 504 -31 243 -179 423 -417 507 -86 30
-237 35 -329 10z m281 -96 c87 -23 152 -62 226 -135 271 -269 154 -730 -215
-842 -57 -17 -75 -19 -101 -9 -40 14 -67 14 -99 0 -58 -27 -241 61 -324 156
-110 125 -156 307 -117 458 47 182 199 335 371 376 62 14 195 12 259 -4z
m-112 -1037 c13 -13 43 -58 67 -100 25 -43 51 -80 59 -83 7 -3 29 4 48 15 24
14 39 17 51 11 11 -6 28 -3 52 9 21 11 47 16 63 13 16 -3 37 1 52 11 13 9 38
16 54 16 27 0 36 -9 85 -90 52 -83 56 -96 66 -177 5 -48 10 -93 10 -100 0 -6
-35 -30 -77 -53 -43 -24 -106 -58 -139 -76 l-61 -34 -25 37 c-22 33 -42 45
-144 87 -170 71 -212 93 -219 116 -11 36 13 53 65 46 25 -3 55 -8 67 -12 46
-13 33 24 -62 180 -52 87 -95 162 -95 166 0 10 40 40 53 40 4 0 18 -10 30 -22z
m166 -84 c38 -8 39 -17 4 -33 -23 -11 -29 -10 -40 5 -25 34 -18 39 36 28z"/>
<path d="M1870 1795 c0 -95 0 -95 25 -95 25 0 25 0 25 95 0 95 0 95 -25 95
-25 0 -25 0 -25 -95z"/>
<path d="M1621 1786 c-9 -11 1 -26 54 -77 37 -35 70 -65 74 -67 5 -1 14 4 20
12 11 13 2 25 -54 78 -78 73 -78 73 -94 54z"/>
<path d="M2066 1724 c-63 -59 -68 -66 -53 -81 14 -14 22 -10 86 48 39 35 71
66 71 69 0 8 -22 30 -29 30 -4 -1 -37 -30 -75 -66z"/>
</g>
</svg>
